# AST/ASF file generated using VICON BodyLanguage
# -----------------------------------------------
:version 1.10
:name VICON
:units
  mass 1.0
  length 0.45
  angle deg
:documentation
   .ast/.asf automatically generated from VICON data using
   VICON BodyBuilder and BodyLanguage model FoxedUp or BRILLIANT.MOD
:root
   order TX TY TZ RX RY RZ
   axis XYZ
   position 0 0 0  
   orientation 0 0 0 
:bonedata
  begin
     id 1 
     name lhipjoint
     direction 0.623415 -0.642378 0.445763 
     length 2.49859 
     axis 0 0 0  XYZ
  end
  begin
     id 2 
     name lfemur
     direction 0.34202 -0.939693 0  
     length 6.69689  
     axis 0 0 20  XYZ
    dof rx ry rz
    limits (-160.0 20.0)
           (-70.0 70.0)
           (-60.0 70.0)
  end
  begin
     id 3 
     name ltibia
     direction 0.34202 -0.939693 0   
     length 7.37574   
     axis 0 0 20   XYZ
    dof rx
    limits (-10.0 170.0)
  end
  begin
     id 4 
     name lfoot
     direction 0.084323 -0.231675 0.969132   
     length 2.09111   
     axis -90 7.62852e-016 20   XYZ
    dof rx rz
    limits (-45.0 90.0)
           (-70.0 20.0)
  end
  begin
     id 5 
     name ltoes
     direction 1.5357e-011 -4.21957e-011 1   
     length 1.04989   
     axis -90 7.62852e-016 20   XYZ
    dof rx
    limits (-90.0 20.0)
  end
  begin
     id 6 
     name rhipjoint
     direction -0.605402 -0.653903 0.45376   
     length 2.45455  
     axis 0 0 0  XYZ 
  end
  begin
     id 7 
     name rfemur
     direction -0.34202 -0.939693 0   
     length 6.64523   
     axis 0 0 -20   XYZ
    dof rx ry rz
    limits (-160.0 20.0)
           (-70.0 70.0)
           (-70.0 60.0)
  end
  begin
     id 8 
     name rtibia
     direction -0.34202 -0.939693 0   
     length 7.3339   
     axis 0 0 -20   XYZ
    dof rx
    limits (-10.0 170.0)
 end
 begin
     id 9 
     name rfoot
     direction -0.120854 -0.332043 0.93549   
     length 2.23135  
     axis -90 -7.62852e-016 -20   XYZ
    dof rx rz
    limits (-45.0 90.0)
           (-20.0 70.0)
  end
  begin
     id 10 
     name rtoes
     direction -1.53563e-011 -4.21914e-011 1   
     length 1.10614   
     axis -90 -7.62852e-016 -20   XYZ
    dof rx
    limits (-90.0 20.0)
  end
  begin
     id 11 
     name lowerback
     direction 0.0319682 0.998615 -0.0417941   
     length 2.02718   
     axis 0 0 0   XYZ
    dof rx ry rz
    limits (-20.0 45.0)
           (-30.0 30.0)
           (-30.0 30.0)
  end
  begin
     id 12 
     name upperback
     direction 7.63181e-005 0.995808 0.0914691   
     length 1.97539   
     axis 0 0 0   XYZ
    dof rx ry rz
    limits (-20.0 45.0)
           (-30.0 30.0)
           (-30.0 30.0)
  end
  begin
     id 13 
     name thorax
     direction -0.016423 0.993627 0.111514   
     length 2.00349   
     axis 0 0 0   XYZ
    dof rx ry rz
    limits (-20.0 45.0)
           (-30.0 30.0)
           (-30.0 30.0)
  end
  begin
     id 14 
     name lowerneck
     direction -0.174763 0.981668 -0.0760716   
     length 1.71436   
     axis 0 0 0   XYZ
    dof rx ry rz
    limits (-20.0 45.0)
           (-30.0 30.0)
           (-30.0 30.0)
  end
  begin
     id 15 
     name upperneck
     direction 0.345458 0.934587 -0.0848868   
     length 1.72805   
     axis 0 0 0   XYZ
    dof rx ry rz
    limits (-20.0 45.0)
           (-30.0 30.0)
           (-30.0 30.0)
  end
  begin
     id 16
     name head
     direction 0.13001 0.989848 -0.0574291  
     length 1.767  
     axis 0 0 0   XYZ
    dof rx ry rz
    limits (-20.0 45.0)
           (-30.0 30.0)
           (-30.0 30.0)
  end
  begin
     id 17 
     name lclavicle
     direction 0.952951 0.290122 0.0878234  
     length 3.54654  
     axis 0 0 0   XYZ
    dof ry rz
    limits (-20.0 10.0)
           (0.0 20.0)
  end
  begin
     id 18 
     name lhumerus
     direction 1 -4.48957e-011 -4.56525e-028   
     length 5.19807   
     axis 180 -30 -90   XYZ
    dof rx ry rz
    limits (-60.0 90.0)
           (-90.0 90.0)
           (-90.0 90.0)
  end
  begin
     id 19
     name lradius
     direction 1 -4.48979e-011 -2.0317e-027   
     length 3.0937   
     axis 180 -30 -90   XYZ
    dof rx
    limits (-10.0 170.0)
  end
  begin
     id 20
     name lwrist
     direction 1 -4.48953e-011 -3.05809e-027   
     length 1.54685   
     axis 8.48514e-016 90 90   XYZ
    dof ry
    limits (-180.0 0.0)
 end
  begin
     id 21 
     name lhand
     direction 1 -4.48952e-011 -6.11639e-027   
     length 0.672632   
     axis 3.9013e-015 90 90   XYZ
    dof rx rz
    limits (-90.0 90.0)
           (-45.0 45.0)
  end
  begin
     id 22 
     name lfingers
     direction 1 -4.48925e-011 -1.22426e-026   
     length 0.542293   
     axis 7.80276e-015 90 90   XYZ
    dof rx
    limits (0.0 90.0)
  end
  begin
     id 23
     name lthumb
     direction 0.707107 -6.3486e-011 0.707107   
     length 0.778628   
     axis -90 45 5.37419e-014   XYZ
    dof rx rz
    limits (-45.0 45.0)
           (-45.0 45.0)
  end
  begin
     id 24 
     name rclavicle
     direction -0.960732 0.273675 -0.0457849   
     length 3.52079  
     axis 0 0 0   XYZ 
    dof ry rz
    limits (-10.0 20.0)
           (-20.0 0.0)
  end
  begin
     id 25 
     name rhumerus
     direction -1 -4.48976e-011 -1.63613e-027  
     length 5.45222   
     axis 180 30 90   XYZ
    dof rx ry rz
    limits (-90.0 60.0)
           (-90.0 90.0)
           (-90.0 90.0)
  end
  begin
     id 26 
     name rradius
     direction -1 -4.48957e-011 -7.00033e-028   
     length 3.01284   
     axis 180 30 90   XYZ
    dof rx
    limits (-10.0 170.0)
  end
  begin
     id 27 
     name rwrist
     direction -1 -4.48983e-011 -3.05543e-027   
     length 1.50642   
     axis 8.48514e-016 -90 -90   XYZ
    dof ry
    limits (-180.0 0.0)
  end
  begin
     id 28
     name rhand
     direction -1 -4.48984e-011 -6.11072e-027   
     length 0.622296   
     axis 3.9013e-015 -90 -90   XYZ
    dof rx rz
    limits (-90.0 90.0)
           (-45.0 45.0)
  end
  begin
     id 29
     name rfingers
     direction -1 -4.48865e-011 -1.22637e-026   
     length 0.501711   
     axis 7.80276e-015 -90 -90   XYZ
    dof rx
    limits (0.0 90.0)
  end
  begin
     id 30
     name rthumb
     direction -0.707107 -6.34932e-011 0.707107   
     length 0.72036   
     axis -90 -45 -5.37419e-014   XYZ
    dof rx rz
    limits (-45.0 45.0)
           (-45.0 45.0)
  end
:hierarchy
  begin
    root lhipjoint rhipjoint lowerback
    lhipjoint lfemur
    lfemur ltibia
    ltibia lfoot
    lfoot ltoes
    rhipjoint rfemur
    rfemur rtibia
    rtibia rfoot
    rfoot rtoes
    lowerback upperback
    upperback thorax
    thorax lowerneck lclavicle rclavicle
    lowerneck upperneck
    upperneck head
    lclavicle lhumerus
    lhumerus lradius
    lradius lwrist
    lwrist lhand lthumb
    lhand lfingers
    rclavicle rhumerus
    rhumerus rradius
    rradius rwrist
    rwrist rhand rthumb
    rhand rfingers
  end

#!OML:ASF H:\Not Pregnant\Project 1\Capture day 1\Session 1\non-pregnant.ASF
:FULLY-SPECIFIED
:DEGREES
182
root 2.24451 15.1836 -15.7861 11.516 1.86058 -7.03648
lowerback 7.11673 0.73874 8.46292
upperback -4.23493 2.01473 1.37704
thorax -8.29475 0.549836 -3.56517
lowerneck 15.419 -9.06414 -34.8908
upperneck -10.8819 -16.8169 39.2876
head 1.69201 -10.0715 20.564
rclavicle -2.26894e-015 -8.18744e-015
rhumerus -52.8471 15.7322 -104.286
rradius 111.467
rwrist -8.8774
rhand -16.2389 -17.7821
rfingers 7.12502
rthumb 9.96967 -47.526
lclavicle -2.26894e-015 -8.18744e-015
lhumerus -55.0375 -12.3342 98.7253
lradius 92.3189
lwrist 30.6133
lhand -3.20646 -8.00093
lfingers 7.12502
lthumb 22.5158 20.7063
rfemur -35.9935 2.73584 32.0174
rtibia 58.1529
rfoot -28.7721 -0.310765
rtoes -18.59
lfemur -23.4809 8.39763 -11.8239
ltibia 83.3431
lfoot -6.11756 -9.55753
ltoes -31.359
183
root 2.26179 15.1405 -15.5989 11.4839 2.2045 -8.11085
lowerback 7.35853 0.957358 9.60087
upperback -4.31007 2.49184 1.70657
thorax -8.44748 0.718923 -3.91779
lowerneck 15.9794 -9.23246 -34.5279
upperneck -11.4018 -17.0447 39.3104
head 1.51642 -10.2402 20.5099
rclavicle 5.91384e-015 1.31695e-014
rhumerus -50.871 16.7181 -103.886
rradius 110.992
rwrist -8.97301
rhand -16.5526 -18.0136
rfingers 7.12502
rthumb 9.66707 -47.7718
lclavicle 5.91384e-015 1.31695e-014
lhumerus -55.6514 -11.945 98.9768
lradius 92.3995
lwrist 30.6112
lhand -3.89775 -7.91693
lfingers 7.12502
lthumb 21.8522 20.8692
rfemur -35.0905 2.53664 33.184
rtibia 58.0319
rfoot -29.2696 -0.356656
rtoes -19.0324
lfemur -26.016 9.13897 -10.4502
ltibia 86.0406
lfoot -7.12502 -9.13674
ltoes -31.1
184
root 2.27774 15.1033 -15.4092 11.6227 2.53605 -8.6604
lowerback 7.40457 1.19028 10.1918
upperback -4.43216 2.89969 1.87914
thorax -8.54479 0.880424 -4.11793
lowerneck 16.5406 -9.4149 -34.1963
upperneck -11.8869 -17.3054 39.4151
head 1.37968 -10.4339 20.5036
rclavicle -1.93567e-014 1.58034e-014
rhumerus -48.9182 17.5337 -103.402
rradius 110.359
rwrist -8.56033
rhand -16.7364 -18.0865
rfingers 7.12502
rthumb 9.48968 -47.8529
lclavicle -1.93567e-014 1.58034e-014
lhumerus -56.2697 -11.5176 99.1656
lradius 92.479
lwrist 30.6673
lhand -4.70353 -7.86668
lfingers 7.12502
lthumb 21.0782 21.0077
rfemur -34.4615 2.21208 33.7741
rtibia 58.0485
rfoot -29.8091 -0.327651
rtoes -19.5149
lfemur -28.7439 9.66522 -9.82539
ltibia 88.3598
lfoot -7.97189 -8.74384
ltoes -30.7825
185
root 2.29302 15.074 -15.2145 11.808 2.81096 -8.78789
lowerback 7.3607 1.44381 10.3382
upperback -4.55602 3.26443 1.92327
thorax -8.60026 1.0443 -4.19957
lowerneck 17.0987 -9.60353 -33.9133
upperneck -12.3362 -17.5905 39.6017
head 1.28168 -10.6477 20.5488
rclavicle 3.83406e-014 6.2816e-014
rhumerus -47.0125 18.1304 -102.837
rradius 109.588
rwrist -7.6285
rhand -16.7297 -17.9427
rfingers 7.12502
rthumb 9.49611 -47.7088
lclavicle 3.83406e-014 6.2816e-014
lhumerus -56.8871 -11.0606 99.2956
lradius 92.5549
lwrist 30.745
lhand -5.59742 -7.83582
lfingers 7.12502
lthumb 20.2193 21.1319
rfemur -33.8936 1.82158 33.8952
rtibia 58.1234
rfoot -30.3829 -0.247134
rtoes -20.0152
lfemur -31.4491 10.0065 -9.81332
ltibia 90.2469
lfoot -8.70225 -8.34601
ltoes -30.4519
186
root 2.30797 15.053 -15.0155 11.9748 3.07001 -8.69781
lowerback 7.2946 1.70045 10.2609
upperback -4.66436 3.59869 1.89965
thorax -8.63315 1.20606 -4.22424
lowerneck 17.6442 -9.78897 -33.6904
upperneck -12.7439 -17.8881 39.8563
head 1.22039 -10.8732 20.6409
rclavicle -1.49213e-014 -2.32578e-014
rhumerus -45.1623 18.4835 -102.192
rradius 108.702
rwrist -6.22354
rhand -16.5031 -17.5981
rfingers 7.12502
rthumb 9.71477 -47.354
lclavicle -1.49213e-014 -2.32578e-014
lhumerus -57.4928 -10.5839 99.3743
lradius 92.6245
lwrist 30.8349
lhand -6.5662 -7.81394
lfingers 7.12502
lthumb 19.288 21.2495
rfemur -33.258 1.3885 33.7741
rtibia 58.1538
rfoot -30.9459 -0.139038
rtoes -20.5284
lfemur -34.056 10.1734 -10.1357
ltibia 91.7125
lfoot -9.33493 -7.93871
ltoes -30.1237
187
root 2.32407 15.0392 -14.8135 12.0887 3.27462 -8.64419
lowerback 7.25324 1.9797 10.2262
upperback -4.7506 3.9687 1.86655
thorax -8.6488 1.38397 -4.28713
lowerneck 18.1863 -9.97167 -33.5034
upperneck -13.1317 -18.1909 40.15
head 1.17865 -11.1053 20.7616
rclavicle -2.63017e-014 -2.48481e-014
rhumerus -43.3856 18.5852 -101.482
rradius 107.714
rwrist -4.45659
rhand -16.118 -16.9712
rfingers 7.12502
rthumb 10.0863 -46.7094
lclavicle -2.63017e-014 -2.48481e-014
lhumerus -58.0872 -10.1262 99.4099
lradius 92.6934
lwrist 30.9388
lhand -7.59836 -7.79123
lfingers 7.12502
lthumb 18.2953 21.3684
rfemur -32.4691 1.00704 33.6722
rtibia 58.0471
rfoot -31.4416 -0.00633074
rtoes -21.0773
lfemur -36.5141 10.2899 -10.4706
ltibia 92.7958
lfoot -9.97682 -7.50919
ltoes -30.0016
188
root 2.3415 15.0329 -14.609 12.1383 3.50876 -8.68374
lowerback 7.24971 2.25561 10.319
upperback -4.81968 4.35296 1.844
thorax -8.65982 1.56217 -4.41165
lowerneck 18.7143 -10.1536 -33.3422
upperneck -13.4995 -18.4957 40.4506
head 1.15074 -11.3384 20.8892
rclavicle -9.56651e-015 1.76918e-014
rhumerus -41.6943 18.4534 -100.722
rradius 106.636
rwrist -2.50456
rhand -15.651 -16.0441
rfingers 7.12502
rthumb 10.5368 -45.76
lclavicle -9.56651e-015 1.76918e-014
lhumerus -58.6665 -9.71045 99.4124
lradius 92.7608
lwrist 31.0801
lhand -8.66262 -7.7516
lfingers 7.12502
lthumb 17.2712 21.5009
rfemur -31.503 0.62802 33.6629
rtibia 57.7582
rfoot -31.8503 0.143427
rtoes -21.6545
lfemur -38.8293 10.2936 -10.7274
ltibia 93.5174
lfoot -10.587 -7.03359
ltoes -29.98
